<svg width="12" height="12" viewBox="0 0 12 12" fill="none" xmlns="http://www.w3.org/2000/svg">
<path d="M6.00049 12C9.3142 12 12.0005 9.31371 12.0005 6C12.0005 2.68629 9.3142 0 6.00049 0C2.68678 0 0.000488281 2.68629 0.000488281 6C0.000488281 9.31371 2.68678 12 6.00049 12Z" fill="#FCFCFC"/>
<path d="M2.47858 5.56463L1.82642 4.38143L2.47858 3.2168L3.13075 4.38143L2.47858 5.56463Z" fill="#A2001D"/>
<path d="M1.17414 5.56463L0.521973 4.38143L1.17414 3.2168L1.82632 4.38143L1.17414 5.56463Z" fill="#A2001D"/>
<path d="M2.47858 8.78337L1.82642 7.60018L2.47858 6.43555L3.13075 7.60018L2.47858 8.78337Z" fill="#A2001D"/>
<path d="M1.17414 8.78337L0.521973 7.60018L1.17414 6.43555L1.82632 7.60018L1.17414 8.78337Z" fill="#A2001D"/>
<path d="M3.13118 1.1637L2.94654 0.833984C2.61537 1.0302 2.30475 1.25738 2.01855 1.51154L2.47901 2.34688L3.13118 1.1637Z" fill="#A2001D"/>
<path d="M2.479 9.65234L2.01367 10.4833C2.29961 10.7378 2.61001 10.9654 2.94104 11.162L3.13119 10.817L2.479 9.65234Z" fill="#A2001D"/>
<path d="M3.65259 7.56445V11.5222C4.37374 11.8291 5.16717 11.9992 6.00042 11.9992C8.5802 11.9992 10.7795 10.371 11.6272 8.08617L3.65259 7.56445Z" fill="#6DA544"/>
<path d="M11.6272 8.08695C11.8684 7.43695 12.0004 6.73392 12.0004 6C12.0004 2.68631 9.3141 0 6.00042 0C5.16724 0 4.37374 0.169992 3.65259 0.476906V8.08697H11.6272V8.08695Z" fill="#A2001D"/>
</svg>
