<svg width="24" height="14" viewBox="0 0 24 14" fill="none" xmlns="http://www.w3.org/2000/svg">
<path d="M21.5868 5.73493C22.4623 6.32941 22.4623 7.54785 21.5868 8.14233C20.4458 8.91708 18.8963 9.87182 17.214 10.6321C15.5284 11.3939 13.7289 11.9515 12.083 11.9515C10.4371 11.9515 8.63764 11.3939 6.95199 10.6321C5.26976 9.87182 3.72021 8.91708 2.57924 8.14233C1.70374 7.54785 1.70374 6.32941 2.57924 5.73493C3.72021 4.96017 5.26976 4.00544 6.95199 3.24516C8.63764 2.48335 10.4371 1.92578 12.083 1.92578C13.7289 1.92578 15.5284 2.48335 17.214 3.24516C18.8963 4.00544 20.4458 4.96017 21.5868 5.73493Z" stroke="#C4C4C4" stroke-width="0.5"/>
<path d="M14.9879 6.93896C14.9879 8.54505 13.6871 9.84668 12.0828 9.84668C10.4786 9.84668 9.17773 8.54505 9.17773 6.93896C9.17773 5.33288 10.4786 4.03125 12.0828 4.03125C13.6871 4.03125 14.9879 5.33288 14.9879 6.93896Z" stroke="#C4C4C4" stroke-width="0.5"/>
<path d="M18.3928 0.623047L5.77246 13.2539" stroke="#C4C4C4" stroke-width="0.5"/>
</svg>
